<svg width="330" height="330" viewBox="0 0 330 330" fill="none" xmlns="http://www.w3.org/2000/svg">
<mask id="mask0_322_4786" style="mask-type:luminance" maskUnits="userSpaceOnUse" x="0" y="0" width="330" height="330">
<path d="M330 0H0V330H330V0Z" fill="white"/>
</mask>
<g mask="url(#mask0_322_4786)">
<path d="M0 165C0 113.746 0 88.1196 8.37326 67.9049C19.5376 40.9516 40.9516 19.5376 67.9049 8.37326C88.1196 0 113.746 0 165 0C216.254 0 241.88 0 262.095 8.37326C289.047 19.5376 310.461 40.9516 321.626 67.9049C330 88.1196 330 113.746 330 165C330 216.254 330 241.88 321.626 262.095C310.461 289.047 289.047 310.461 262.095 321.626C241.88 330 216.254 330 165 330C113.746 330 88.1196 330 67.9049 321.626C40.9516 310.461 19.5376 289.047 8.37326 262.095C0 241.88 0 216.254 0 165Z" fill="white"/>
<path fill-rule="evenodd" clip-rule="evenodd" d="M165 41.25L82.5 165L165 220.688V288.75L247.5 165L165 220.688V41.25Z" fill="black"/>
</g>
</svg>
